<svg xmlns="http://www.w3.org/2000/svg" version="1.1" xmlns:xlink="http://www.w3.org/1999/xlink" xmlns:svgjs="http://svgjs.dev/svgjs" width="100%" height="100%" viewBox="0 0 1000 600"><rect width="1000" height="600" x="0" y="0" fill="#ffffff"/><g><rect width="333.3333333333333" height="333.3333333333333" y="266.6346803944641" fill="#7f3dff" transform="matrix(0.5114306696877552,0,0,0.5114306696877553,0,78.39642669520151)" x="244.41239929199216"/><path d="M367.69810818361833 508.3013477575116L334.0419911580046 508.3013477575116L334.0419911580046 378.70758346309594L331.4912117623791 358.3013482980922L490.666931547729 358.3013482980922L490.666931547729 382.8171724893814L367.69810818361833 382.8171724893814L367.69810818361833 420.0514661671919L463.1043430783316 420.0514661671919L463.1043430783316 445.31126768220514L367.69810818361833 445.31126768220514L367.69810818361833 508.3013477575116Z " fill="#ffffff" transform="matrix(0.5114306696877552,0,0,0.5114306696877553,0,78.39642669520151)"/><path d="M693.7865588303183 505.997102014354L663.3833175993603 505.997102014354L663.3833175993603 388.92862156925446L661.0790719481719 370.4946563597473L804.8704012646924 370.4946563597473L804.8704012646924 392.64101734061353L693.7865588303183 392.64101734061353L693.7865588303183 426.2766031655998L779.9717468671289 426.2766031655998L779.9717468671289 449.09503579472937L693.7865588303183 449.09503579472937L693.7865588303183 505.997102014354ZM839.6581099152729 388.2565499209912L839.6581099152729 388.2565499209912Q831.1452023706047 388.2565499209912 827.2087827164911 384.8001814442086Q823.3043664741997 381.34381296742595 823.3043664741997 373.2789531882666L823.3043664741997 373.2789531882666Q823.3043664741997 364.9900695263527 827.112772481025 361.62971128503636Q830.8891750760281 358.30135645554196 839.6581099152729 358.30135645554196L839.6581099152729 358.30135645554196Q848.4270447545176 358.30135645554196 852.331460996809 361.62971128503636Q856.2358772391005 364.9900695263527 856.2358772391005 373.2789531882666L856.2358772391005 373.2789531882666Q856.2358772391005 381.11978908467154 852.331460996809 384.67216779692035Q848.4270447545176 388.2565499209912 839.6581099152729 388.2565499209912ZM853.7076077051577 505.997102014354L825.608612125388 505.997102014354L825.608612125388 402.75409547638486L853.7076077051577 402.75409547638486L853.7076077051577 505.997102014354ZM912.0178240449532 505.997102014354L883.8868250533613 505.997102014354L883.8868250533613 402.75409547638486L902.8008414401995 402.75409547638486L912.0178240449532 407.3625867787617Q921.6828544152155 405.53839230490416 935.2843044395916 404.1622455965556Q948.8857544639675 402.75409547638486 966.3916207306349 402.75409547638486L966.3916207306349 402.75409547638486L977.9128489865769 402.75409547638486Q989.4340772425189 402.75409547638486 995.6427391359987 405.98644007041304Q1001.8834044413006 409.2187846644412 1004.5396876225318 414.05129984957244Q1007.1639673919408 418.8838150347037 1007.7400288047379 423.84434386712314Q1008.316090217535 428.8048726995426 1008.316090217535 432.2612411763252L1008.316090217535 432.2612411763252L1008.316090217535 505.997102014354L980.2170946377653 505.997102014354L980.2170946377653 431.8131934108163Q980.2170946377653 422.59621080606274 969.1439141473322 422.59621080606274L969.1439141473322 422.59621080606274L918.9305609985183 422.59621080606274Q914.5460935788959 422.59621080606274 913.2659571060135 423.39629610161427Q912.0178240449532 424.1963813971658 912.0178240449532 427.65274987394844L912.0178240449532 427.65274987394844L912.0178240449532 505.997102014354ZM1116.167588057881 505.997102014354L1085.764346826923 505.997102014354L1085.5083195323464 392.38499004603705L1025.597932601448 392.38499004603705L1025.597932601448 370.2706324769929L1176.3019988715337 370.2706324769929L1176.3019988715337 392.38499004603705L1116.167588057881 392.38499004603705L1116.167588057881 505.997102014354ZM1218.2584717702557 505.997102014354L1190.127472778664 505.997102014354L1190.127472778664 402.75409547638486L1209.0414891655023 402.75409547638486L1217.7784205929252 407.3625867787617Q1223.7630586036503 404.1622455965556 1230.6757955572157 402.306047710876Q1237.588532510781 400.44984982519645 1248.2136652357053 400.44984982519645L1248.2136652357053 400.44984982519645Q1265.0154564422874 400.44984982519645 1275.5125755199233 404.1622455965556Q1285.977691185737 407.8426379560926 1289.4340596625198 409.6668324299501L1289.4340596625198 409.6668324299501L1281.3691998833606 429.7329716423824Q1278.6169064666633 428.35682493403374 1272.280230925895 426.14858951831155Q1265.9435553851272 423.9723575144114 1257.4306478404587 422.11615962873185Q1248.8857368839685 420.29196515487433 1238.7406553363749 420.29196515487433L1238.7406553363749 420.29196515487433L1236.212385802432 420.29196515487433Q1225.171208723821 420.29196515487433 1221.8108504825045 424.64442916267467Q1218.4824956530106 429.028896582297 1218.2584717702557 439.17397812989043L1218.2584717702557 439.17397812989043L1218.2584717702557 505.997102014354ZM1337.5991944547218 505.997102014354L1326.07796619878 505.997102014354Q1308.5720999321125 505.997102014354 1300.7312640357072 497.8042285879063Q1292.8904281393025 489.6433585732808 1292.8904281393025 475.33783348881946L1292.8904281393025 475.33783348881946Q1292.8904281393025 460.3602367560949 1301.08330156575 452.2953769769355Q1309.2761749921979 444.23051719777607 1326.07796619878 444.23051719777607L1326.07796619878 444.23051719777607L1337.8232183374762 444.23051719777607Q1355.1050607213892 444.23051719777607 1368.9305346285196 445.15861614061583Q1382.75600853565 446.0867150834556 1391.7489672576494 447.01481402629537L1391.7489672576494 447.01481402629537L1391.7489672576494 431.8131934108163Q1391.7489672576494 429.7329716423824 1391.3009194921406 427.52473622666014Q1390.8208683148096 425.34850422276 1388.516622663621 423.9723575144114Q1386.2123770124326 422.59621080606274 1380.707790179038 422.59621080606274L1380.707790179038 422.59621080606274L1369.1865619230962 422.59621080606274Q1344.0638836427784 422.59621080606274 1327.2300890243741 423.39629610161427Q1310.428297817792 424.1963813971658 1304.4116563952443 424.90045645725115L1304.4116563952443 424.90045645725115L1301.8833868613015 407.3625867787617Q1301.8833868613015 404.1622455965556 1319.389253127969 403.4581705364702Q1336.9271228064586 402.75409547638486 1377.9234933505186 402.75409547638486L1377.9234933505186 402.75409547638486L1389.444721606461 402.75409547638486Q1400.9659498624028 402.75409547638486 1407.206615167705 405.98644007041304Q1413.4152770611845 409.2187846644412 1416.0715602424157 414.05129984957244Q1418.7278434236468 418.8838150347037 1419.303904836444 423.84434386712314Q1419.879966249241 428.8048726995426 1419.879966249241 432.2612411763252L1419.879966249241 432.2612411763252L1419.879966249241 505.997102014354L1400.9659498624028 505.997102014354L1391.9729911404038 501.3886107119772Q1382.307960770141 502.98878130308026 1368.7065107457652 504.49294165871714Q1355.1050607213892 505.997102014354 1337.5991944547218 505.997102014354L1337.5991944547218 505.997102014354ZM1332.062604209505 486.18699009649816L1332.062604209505 486.18699009649816L1384.836230304084 486.18699009649816Q1389.924772783792 486.18699009649816 1390.8208683148096 485.2588911536584Q1391.7489672576494 484.3307922108187 1391.7489672576494 479.4982770256874L1391.7489672576494 479.4982770256874L1391.7489672576494 461.76838687626554L1332.062604209505 461.76838687626554Q1325.8539423160255 461.76838687626554 1323.4216830175487 464.74470417571723Q1321.0214271308942 467.753024886991 1321.0214271308942 474.1857106632253L1321.0214271308942 474.1857106632253Q1321.0214271308942 480.6503998512816 1323.7737205475914 483.40269326797886Q1326.5580173761105 486.18699009649816 1332.062604209505 486.18699009649816ZM1520.7867237241994 505.997102014354L1474.477786817677 505.997102014354Q1462.9565585617352 505.997102014354 1456.7478966682552 502.98878130308026Q1450.5072313629535 500.01246400362857 1447.8509481817223 495.40397270125175Q1445.2266684123133 490.795481398875 1444.6506069995162 485.7069389191672Q1444.074545586719 480.6503998512816 1444.074545586719 476.4899563144137L1444.074545586719 476.4899563144137L1444.074545586719 432.2612411763252Q1444.074545586719 428.8048726995426 1444.6506069995162 423.84434386712314Q1445.2266684123133 418.8838150347037 1447.8509481817223 414.05129984957244Q1450.5072313629535 409.2187846644412 1456.8439069037213 405.98644007041304Q1463.1805824444896 402.75409547638486 1474.477786817677 402.75409547638486L1474.477786817677 402.75409547638486L1506.5132020515603 402.75409547638486Q1535.3162726914152 402.75409547638486 1547.4135623601546 404.25825583202175Q1559.5108520288936 405.76241618765863 1559.5108520288936 407.3625867787617L1559.5108520288936 407.3625867787617L1554.9023607265167 424.90045645725115Q1548.43767153846 424.42040527992026 1538.5486172854435 423.84434386712314Q1528.6275596206046 423.268282454326 1517.2343450119506 422.9162449242834Q1505.8091269914748 422.59621080606274 1494.9919737956184 422.59621080606274L1494.9919737956184 422.59621080606274L1483.246721656922 422.59621080606274Q1472.1735411664886 422.59621080606274 1472.1735411664886 431.8131934108163L1472.1735411664886 431.8131934108163L1472.1735411664886 476.9700074917446Q1471.9495172837342 486.18699009649816 1483.246721656922 486.18699009649816L1483.246721656922 486.18699009649816L1494.9919737956184 486.18699009649816Q1507.4413009944 486.18699009649816 1519.282563368563 485.8349525664555Q1531.1558291545475 485.48291503641286 1541.0768868193863 484.9068536236157Q1550.965941072403 484.3307922108187 1556.9825824949507 483.8827444453098L1556.9825824949507 483.8827444453098L1566.1995650997042 498.8603411780344Q1566.1995650997042 505.997102014354 1520.7867237241994 505.997102014354L1520.7867237241994 505.997102014354ZM1692.67704862049 508.3013476655424L1692.67704862049 508.3013476655424Q1683.0120182502274 508.3013476655424 1676.2272949439503 505.997102014354Q1669.4105682258514 503.6928563631656 1661.8257596240228 496.0760443495151L1661.8257596240228 496.0760443495151Q1661.1216845639378 495.40397270125175 1658.113363852664 492.39565198997803Q1655.1370465532123 489.41933469052634 1651.5526644291413 485.7069389191672Q1648.0002857168924 482.0265465596302 1644.9919650056186 479.0502292601785Q1641.9836442943451 476.0419085489048 1641.0875487633275 475.11380960606505L1641.0875487633275 475.11380960606505Q1635.3269346353563 469.35319547809405 1630.1423819201823 466.1208508840659Q1624.9578292050087 462.92050970185977 1617.3410171913579 462.92050970185977L1617.3410171913579 462.92050970185977Q1612.2844781234721 462.92050970185977 1611.3563791806328 463.81660523287746Q1610.4282802377925 464.74470417571723 1610.4282802377925 470.05727053817935L1610.4282802377925 470.05727053817935L1610.4282802377925 505.997102014354L1582.3292846580234 505.997102014354L1582.3292846580234 360.1255509293995L1610.4282802377925 360.1255509293995L1610.4282802377925 443.07839437218183L1617.7890649568667 443.07839437218183Q1621.9495084937348 443.07839437218183 1625.181853087763 439.87805318997573L1625.181853087763 439.87805318997573Q1627.2620748561972 437.7978314215418 1633.0226889841679 431.55716611623984Q1638.783303112139 425.34850422276 1646.0160741839245 417.50766832635503Q1653.2808486675326 409.6668324299501 1659.2654866782582 403.01012277096135L1659.2654866782582 403.01012277096135L1693.1570997978206 403.01012277096135L1689.476707438284 410.146883607281Q1684.1641410758216 415.68347385249757 1677.9554791823416 421.7641220986892Q1671.71481387704 427.87677375670285 1665.8581895136026 433.5413776492077Q1659.9695617383436 439.17397812989043 1655.1370465532123 443.43043190222454Q1650.304531368081 447.68688567455865 1647.7442584223163 449.09503579472937L1647.7442584223163 449.09503579472937Q1654.6569953758813 452.77542815426636 1660.1935856210976 457.47992969210935Q1665.7301758663143 462.2164346417744 1672.194865054371 468.10506241703365Q1678.6275508306048 473.9616867804708 1687.6205095526038 481.35447491136694L1687.6205095526038 481.35447491136694Q1695.6853693317635 487.7871606876013 1702.5981062853289 488.8432732777293Q1709.5108432388938 489.8673824560352 1710.886989947243 489.8673824560352L1710.886989947243 489.8673824560352L1706.758549822197 505.997102014354Q1704.454304171008 506.70117707443933 1700.5178845168948 507.50126236999085Q1696.6134682746033 508.3013476655424 1692.67704862049 508.3013476655424Z " fill="#7f3dff" transform="matrix(0.5114306696877552,0,0,0.5114306696877553,0,78.39642669520151)"/></g></svg>